<?xml version="1.0" encoding="utf-8"?>
<!-- Generator: Adobe Illustrator 23.0.4, SVG Export Plug-In . SVG Version: 6.00 Build 0)  -->
<svg version="1.1" id="Layer_1" xmlns="http://www.w3.org/2000/svg" xmlns:xlink="http://www.w3.org/1999/xlink" x="0px" y="0px"
	 viewBox="0 0 22.7 30.9" style="enable-background:new 0 0 22.7 30.9;" xml:space="preserve">
<style type="text/css">
	.st0{fill:#FFFFFF;}
</style>
<path class="st0" d="M21.6,6.1c-0.7-1.7-2-3.1-3.7-3.9C14.1,0.3,9.6,0.8,6.4,3.5C8,3.6,9.3,4.6,10,6.2c0.9,2.2-0.2,4.7-2.4,5.6
	c-0.1,0-0.1,0-0.1,0c-0.1,0-0.3-0.1-0.3-0.2c-0.1-0.2,0-0.3,0.2-0.4c1.8-0.7,2.8-2.9,2-4.7C8.7,5,7.3,4.1,5.8,4.1
	C3,4.3,0.9,6.6,1,9.4c0,0.3,0.1,0.6,0.1,1c1,3.9,2.9,7.4,5.8,10.2h12.4C22.7,16.6,23.6,10.9,21.6,6.1z M21.4,8.1
	c-2,1.8-4.7,2.8-7.3,2.8c-1.3,0-2.6-0.2-3.9-0.7C10,10.1,9.9,9.9,10,9.8c0.1-0.2,0.3-0.3,0.4-0.2c3.6,1.4,7.7,0.6,10.5-2
	c0.1-0.1,0.3-0.1,0.5,0C21.5,7.7,21.5,7.9,21.4,8.1z"/>
<path class="st0" d="M7.1,21.2v6.5c0,1.1,0.9,1.9,1.9,1.9h8.1c1.1,0,1.9-0.9,1.9-1.9v-6.5H7.1z M14.9,25c0.2,0,0.3,0.1,0.3,0.3
	c0,0.2-0.1,0.3-0.3,0.3h-1.4v1h1.4c0.2,0,0.3,0.1,0.3,0.3c0,0.2-0.1,0.3-0.3,0.3h-1.4v1.2c0,0.2-0.1,0.3-0.3,0.3s-0.3-0.1-0.3-0.3
	v-1.2h-1.4c-0.2,0-0.3-0.1-0.3-0.3c0-0.2,0.1-0.3,0.3-0.3h1.4v-1h-1.4c-0.2,0-0.3-0.1-0.3-0.3c0-0.2,0.1-0.3,0.3-0.3h1.4v-1h-1.4
	c-0.2,0-0.3-0.1-0.3-0.3c0-0.2,0.1-0.3,0.3-0.3h1.4v-1.2c0-0.2,0.1-0.3,0.3-0.3s0.3,0.1,0.3,0.3v1.2h1.4c0.2,0,0.3,0.1,0.3,0.3
	c0,0.2-0.1,0.3-0.3,0.3h-1.4v1H14.9z"/>
</svg>
