<?xml version="1.0" encoding="utf-8"?>
<!-- Generator: Adobe Illustrator 23.0.4, SVG Export Plug-In . SVG Version: 6.00 Build 0)  -->
<svg version="1.1" id="Layer_1" xmlns="http://www.w3.org/2000/svg" xmlns:xlink="http://www.w3.org/1999/xlink" x="0px" y="0px"
	 viewBox="0 0 48 59" style="enable-background:new 0 0 48 59;" xml:space="preserve">
<style type="text/css">
	.st0{fill:#FFFFFF;}
</style>
<g>
	<g>
		<g>
			<path class="st0" d="M7.4,43.4c-0.4,0-0.7-0.1-0.9-0.4c-0.4-0.5-0.3-1.2,0.2-1.6l4.7-3.4c0.4-0.4,1.1-0.3,1.5,0.1l2.5,2.7L19,38
				c0.4-0.3,1-0.3,1.4,0l3.6,2.8l3.6-2.8c0.4-0.3,1-0.3,1.4,0l3.6,2.7l2.5-2.7c0.4-0.4,1-0.4,1.5-0.1l4.5,3.4
				c0.5,0.4,0.6,1.1,0.2,1.6c-0.4,0.5-1.1,0.6-1.6,0.2l-3.6-2.8L33.6,43c-0.4,0.4-1,0.4-1.6,0.1l-3.6-2.8l-3.6,2.8
				c-0.4,0.3-1,0.3-1.4,0l-3.6-2.8l-3.6,2.8c-0.4,0.4-1.1,0.3-1.6-0.1l-2.6-2.7l-3.9,2.8C7.9,43.3,7.6,43.4,7.4,43.4z"/>
		</g>
		<g>
			<path class="st0" d="M5.1,35.4c-0.4,0-0.7-0.1-1-0.5c-0.4-0.5-0.1-1.3,0.4-1.6l5.4-3.4c0.4-0.3,1-0.2,1.4,0.1l3,2.8l4.2-2.9
				c0.4-0.3,0.9-0.3,1.3,0l4.3,3l4.3-3c0.4-0.3,0.9-0.3,1.3,0l4.2,2.9l3.6-2.9c0.4-0.3,1-0.4,1.4,0l4.5,3.4c0.5,0.4,0.6,1.1,0.2,1.6
				c-0.4,0.4-1.1,0.6-1.6,0.2l-3.9-2.9l-3.5,2.8c-0.4,0.3-1,0.4-1.3,0.1l-4.3-3l-4.3,3c-0.4,0.3-0.9,0.3-1.3,0l-4.3-3l-4.3,3
				c-0.4,0.3-1,0.3-1.4-0.1l-3-2.8l-4.6,3C5.5,35.4,5.3,35.4,5.1,35.4z"/>
		</g>
		<g>
			<path class="st0" d="M24.1,54.2c-5.3,0-10.3-2.1-14.1-5.9C6.1,44.5,4,39.5,4,34.2c0-4.9,2.2-14.1,6.1-21.5
				c0.2-0.4,0.8-0.7,1.3-0.6c3.6,1,8,1.6,12.6,1.6s9-0.5,12.6-1.6c0.5-0.1,1,0.1,1.3,0.6c3.9,7.2,5.9,16.3,5.9,21.5
				s-2.1,10.3-5.8,14C34.3,52.1,29.3,54.2,24.1,54.2z M11.7,14.6c-3.6,6.9-5.4,15.2-5.4,19.7c0,9.6,8.1,17.7,17.8,17.7
				s17.5-8,17.5-17.7c0-4.7-1.9-13-5.2-19.7c-3.6,1-7.9,1.5-12.3,1.5S15.4,15.5,11.7,14.6z"/>
		</g>
		<g>
			<path class="st0" d="M24.1,16c-4.8,0-9.4-0.6-13.2-1.7c-0.3-0.1-0.6-0.3-0.7-0.7c-0.1-0.3-0.1-0.7,0.1-1C13.9,5.7,18.7,2,24.1,2
				s10.2,3.7,14,10.7c0.1,0.3,0.1,0.7,0.1,1c-0.1,0.3-0.4,0.6-0.7,0.7C33.4,15.4,28.9,16,24.1,16z M12.8,12.6
				c3.3,0.8,7.2,1.2,11.2,1.2s7.9-0.4,11.2-1.2c-2.4-4-6.2-8.2-11.2-8.2S15.2,8.5,12.8,12.6z"/>
		</g>
	</g>
</g>
</svg>
