<?xml version="1.0" encoding="utf-8"?>
<!-- Generator: Adobe Illustrator 23.0.4, SVG Export Plug-In . SVG Version: 6.00 Build 0)  -->
<svg version="1.1" id="Layer_1" xmlns="http://www.w3.org/2000/svg" xmlns:xlink="http://www.w3.org/1999/xlink" x="0px" y="0px"
	 viewBox="0 0 66 53" style="enable-background:new 0 0 66 53;" xml:space="preserve">
<style type="text/css">
	.st0{fill:#FFFFFF;}
</style>
<g>
	<path class="st0" d="M27.8,44.6c-0.7,0-1.4-0.3-1.9-0.9c-0.9-1.1-2.4-3-3.6-4.4c-1.9,1-3.8,0.7-5.9-0.3c0.4,1,0.9,2.5,2.6,3.8
		c1.8,1.4,4.6,3.6,7.2,5.6c3.1,2.4,5.4,2.3,6.4,2.2c0.2,0,0.4-0.3,0.3-0.5L32.3,49c-0.1-0.2,0-0.5,0.3-0.5l3.6-0.2
		c0.2,0,0.4-0.2,0.3-0.4C35.7,44.7,30.2,44.5,27.8,44.6z"/>
	<path class="st0" d="M12.7,41.8c-0.6,0-1.1-0.3-1.3-0.9c-1.3-3.5-1.6-3.9-1.4-4.5l0.4-1.1l0,0c-1.9-0.9-3.6-2.1-5-3.5L6,38.4
		c0.1,0.4,0.2,0.9,0.3,1.3L8.2,44c0.3,0.7,0.8,1.4,1.5,1.8c2.9,2,5.1,1.8,6,1.6c0.2,0,0.3-0.3,0.2-0.4l-0.5-1
		c-0.1-0.2,0.1-0.4,0.3-0.4h3.2c0.4,0,0.7-0.4,0.6-0.8C18.5,41.8,14.6,41.7,12.7,41.8z"/>
	<path class="st0" d="M57,25.3c-1,0.9-2.1,1.6-3.4,1.9c2.2,3.2,9.1,13.5,10.7,18.4c0.1,0.3,0.6,0.3,0.7,0
		C65.3,44.7,64.5,40.6,57,25.3z"/>
	<path class="st0" d="M58.1,19.2c0-5.5-5.4-9.4-10.7-8.6c-0.8,0.1-3,0.8-4.6,1.3c-1.9,0.6-3-0.5-4.3-1.6c-3.6-2.8-7.7-9.1-18.1-9.1
		C9.7,1.2,1,9,1,18.6c0,6.6,4,12.3,10,15.2c1.6,0.8,3.1,1.7,4.4,2.8c2.3,2,5.9,2.7,7.6,0.1c2.4-3.8,6.8-5.7,10.4-5.6
		c2.8,0.7,6.4-0.1,8.4-2.8c0.9-1.3,2.3-2.9,3.9-3.3c0.6-0.2,1.1,0,1.6,0.3C52.1,27.8,58.1,24.8,58.1,19.2z M52.6,21.5
		c-0.8,0-1.5-0.7-1.5-1.5s0.7-1.5,1.5-1.5s1.5,0.7,1.5,1.5S53.4,21.5,52.6,21.5z"/>
</g>
</svg>
