<?xml version="1.0" encoding="utf-8"?>
<!-- Generator: Adobe Illustrator 23.0.4, SVG Export Plug-In . SVG Version: 6.00 Build 0)  -->
<svg version="1.1" id="Layer_1" xmlns="http://www.w3.org/2000/svg" xmlns:xlink="http://www.w3.org/1999/xlink" x="0px" y="0px"
	 viewBox="0 0 87.9 86.9" style="enable-background:new 0 0 87.9 86.9;" xml:space="preserve">
<style type="text/css">
	.st0{fill:#FFFFFF;}
</style>
<path class="st0" d="M74.5,19.7l-0.1-4c0-0.5-0.4-0.9-0.9-1l-3.9-0.4c-0.5,0-0.9,0.2-1.1,0.7c-1.3,4.1-4.9,8.3-4.9,8.4
	c-0.3,0.4-0.3,1,0,1.3c0.2,0.2,0.5,0.3,0.7,0.3c0.2,0,0.4-0.1,0.6-0.2c0,0,4.6-3.3,8.8-4.2C74.2,20.7,74.5,20.2,74.5,19.7z M68,20.7
	c0.8-1.3,1.6-2.8,2.2-4.3l2.3,0.3l0.1,2.3C70.9,19.4,69.3,20.1,68,20.7z"/>
<path class="st0" d="M73.1,24.2l-5.1,2.3c-0.5,0.2-0.7,0.8-0.5,1.3c0.2,0.4,0.5,0.6,0.9,0.6c0.1,0,0.3,0,0.4-0.1l5.1-2.3
	c0.5-0.2,0.7-0.8,0.5-1.3S73.6,23.9,73.1,24.2z"/>
<path class="st0" d="M82.7,19.9l-6,2.7c-0.5,0.2-0.7,0.8-0.5,1.3c0.2,0.4,0.5,0.6,0.9,0.6c0.1,0,0.3,0,0.4-0.1l6-2.7
	c0.5-0.2,0.7-0.8,0.5-1.3C83.8,19.9,83.2,19.7,82.7,19.9z"/>
<path class="st0" d="M60.6,20.6c0.2,0.1,0.3,0.1,0.5,0.1c0.3,0,0.7-0.2,0.9-0.5l2.8-4.9c0.3-0.5,0.1-1.1-0.4-1.4
	c-0.5-0.3-1.1-0.1-1.4,0.4l-2.8,4.9C59.9,19.7,60.1,20.3,60.6,20.6z"/>
<path class="st0" d="M65.4,12.2c0.2,0.1,0.3,0.1,0.5,0.1c0.3,0,0.7-0.2,0.9-0.5L70,6.1c0.3-0.5,0.1-1.1-0.4-1.4
	c-0.5-0.3-1.1-0.1-1.4,0.4l-3.2,5.7C64.8,11.3,65,11.9,65.4,12.2z"/>
<path class="st0" d="M78.4,5.1c-0.8-0.8-2.1-0.8-2.9,0l-3.2,3.2c-0.8,0.8-0.8,2.1,0,2.9l5.2,5.2c0.4,0.4,0.9,0.6,1.4,0.6
	s1-0.2,1.4-0.6l3.2-3.2c0.8-0.8,0.8-2.1,0-2.9L78.4,5.1z M79,14.9C79,14.9,79,14.9,79,14.9l-5.3-5.3L77,6.5l5.2,5.3L79,14.9z"/>
<path class="st0" d="M59.1,24.4c-0.4-0.4-1-0.4-1.4,0l-2.4,2.4c0,0.1-4.9,5.5-11.7,7c-6.5,1.4-14.6,4.3-25,14.7L5,62
	c-1.3,1.3-1.3,3.4,0,4.7l16.8,16.8c0.6,0.6,1.5,1,2.4,1c0.9,0,1.7-0.3,2.4-1l13.6-13.6c10.5-10.5,13.3-18.5,14.7-25
	c1.5-6.7,6.9-11.6,7-11.7l2.4-2.4c0.2-0.2,0.3-0.4,0.3-0.7s-0.1-0.5-0.3-0.7L59.1,24.4z M39.9,47.7c0.1,0.4,0.4,0.8,0.8,0.8
	l10.5,1.5c-1.7,4.8-4.9,10.4-11.2,17L21.5,48.4c6.6-6.3,12.1-9.4,16.9-11.1L39.9,47.7z M25.1,82.1c-0.5,0.5-1.4,0.5-1.9,0L6.4,65.4
	c-0.5-0.5-0.5-1.4,0-1.9l3.5-3.5l18.7,18.7L25.1,82.1z M30,77.2L11.4,58.5l8.6-8.6c0,0,0,0,0,0l18.7,18.7c0,0,0,0,0,0L30,77.2z
	 M52.8,44.5c-0.3,1.2-0.6,2.4-0.9,3.7l-10.2-1.5l-1.4-10c1.3-0.4,2.6-0.7,3.8-1c2.4-0.5,4.6-1.5,6.5-2.6l4.9,4.9
	C54.3,39.8,53.4,42,52.8,44.5z M60.4,31.7c-0.1,0.1-2,1.8-3.9,4.5L52.3,32c2.7-1.9,4.4-3.7,4.5-3.9l1.7-1.7l3.6,3.6L60.4,31.7z"/>
</svg>
