<?xml version="1.0" encoding="utf-8"?>
<!-- Generator: Adobe Illustrator 23.0.4, SVG Export Plug-In . SVG Version: 6.00 Build 0)  -->
<svg version="1.1" id="Layer_1" xmlns="http://www.w3.org/2000/svg" xmlns:xlink="http://www.w3.org/1999/xlink" x="0px" y="0px"
	 viewBox="0 0 100 51.9" style="enable-background:new 0 0 100 51.9;" xml:space="preserve">
<style type="text/css">
	.st0{fill-rule:evenodd;clip-rule:evenodd;fill:#FFFFFF;}
</style>
<g>
	<polygon class="st0" points="30.1,1.2 30.1,8.6 45.1,1.2 	"/>
	<polygon class="st0" points="1.9,22.6 12.8,17.2 1.9,17.2 	"/>
	<path class="st0" d="M50.1,1.2V1h-1.7L32.5,9.1h3.1l14.5-7.4v1.9l-11,5.5h11v1.9H28.2V1h-4.4v9.9H1.9v4.4h21.9v9.9h-1.9v-7.7
		L6.4,25.3H3.6l15.9-8.1h-3.1L1.9,24.6v0.7h0v24.5h96.8V1.2H50.1z M50.1,22.6v1.6l-14.2-7h-3.2l16.5,8.1h-3.6l-15.6-7.7v7.7h-1.9
		v-9.9h21.9v1.9H39.3L50.1,22.6z M66.3,24.5l-2.2-1.6l-2.2,1.6l0.9-2.6l-2.2-1.6l2.7,0l0.8-2.6l0.8,2.6l2.7,0l-2.2,1.6L66.3,24.5z
		 M77.6,42.6L75.4,41l-2.2,1.6L74,40l-2.2-1.6l2.7,0l0.8-2.6l0.8,2.6l2.7,0L76.7,40L77.6,42.6z M76.9,10.8l0.9,2.6l-2.2-1.6
		l-2.2,1.6l0.9-2.6L72,9.1l2.7,0l0.8-2.6l0.8,2.6l2.7,0L76.9,10.8z M87.1,21.7l-2.2-1.6l-2.2,1.6l0.9-2.6l-2.2-1.6l2.7,0l0.8-2.6
		l0.8,2.6l2.7,0l-2.2,1.6L87.1,21.7z"/>
	<polygon class="st0" points="19.3,9.1 2.8,1 1.9,1 1.9,2.1 16.1,9.1 	"/>
	<polygon class="st0" points="21.9,1.2 6.9,1.2 21.9,8.6 	"/>
	<polygon class="st0" points="12.9,9.1 1.9,3.7 1.9,9.1 	"/>
</g>
</svg>
