<?xml version="1.0" encoding="utf-8"?>
<!-- Generator: Adobe Illustrator 23.0.4, SVG Export Plug-In . SVG Version: 6.00 Build 0)  -->
<svg version="1.1" id="Layer_1" xmlns="http://www.w3.org/2000/svg" xmlns:xlink="http://www.w3.org/1999/xlink" x="0px" y="0px"
	 viewBox="0 0 84.3 99.3" style="enable-background:new 0 0 84.3 99.3;" xml:space="preserve">
<style type="text/css">
	.st0{fill:none;}
	.st1{fill:#FFFFFF;}
</style>
<path class="st0" d="M28.3,56.9c-0.1,0-0.3,0-0.4,0c-1.9,0-3-1.3-3.3-2.7c-0.6,0.3-1.3,0.7-1.9,1c-0.9,0.4-1.9,0.2-2.4-0.6
	s-0.2-2,0.6-2.4c1-0.5,2-1.1,3.1-1.6c1.1-0.5,2.6-0.9,3.9-0.7c1.5,0.2,2.8,0.9,3.3,2.4C31.8,54.4,30.6,56.7,28.3,56.9z M40.7,68
	c0.5-0.5,1.1-0.5,1.7-0.3c0.3,0.1,0.7,0.3,0.9,0.6c0.5,0.4,0.6,0.6,0.3,1.1c-0.3,0.4-0.8,0.7-1.3,0.7c-0.1,0-0.2,0-0.2,0
	C41.3,70.1,39.7,68.9,40.7,68z M34.4,67.9c0.5-0.3,1.5-0.3,2.2,0c0.5,0.2,0.9,0.7,0.7,1.3c-0.3,1.2-2.1,1.4-2.9,0.6
	c-0.1-0.1-0.2-0.2-0.2-0.2C33.6,69,33.7,68.2,34.4,67.9z M48.5,79c-2.9,2-6.5,2.9-10,2.6c-1.8-0.2-3.5-0.6-5.1-1.4
	c-1.1-0.5-3.1-1.8-3.3-3.1c-0.1-0.8,0.9-1.5,1.6-1.5c1.2,0,2.5-0.1,3.7-0.1c0.9,0,2-0.5,2.8,0.1c1.3,0.9,1.6,0,2.9-0.3
	c0.8-0.1,1.7,0.1,2.4,0.1c1.5,0,3.2,0,4.6-0.6c1.1-0.5,2.4,0.2,2.7,1.4C51.1,77.4,49.5,78.3,48.5,79z M54.4,53.1
	c-0.5,0-1.1-0.1-1.6-0.2c-0.5,1.2-1.5,2.1-3.2,2.1c-1.8,0-3.1-1.2-3.4-3c-0.2-1.6,0.6-2.6,2.1-3.1c2.1-0.7,4-0.2,6.1,0.5
	c0.2,0.1,0.3,0.1,0.5,0.2c0.6,0.2,1,0.6,1.1,1.2C56.3,52,55.6,53.1,54.4,53.1z M60.4,47.4c-0.2,0.5-0.7,0.6-1.2,0.7
	c-0.6,0-1.2-0.1-1.7-0.2c-1.3-0.2-2.5-0.4-3.8-0.7c-1.2-0.2-2-0.3-3.1-0.1c-2.3,0.3-4.5,1.1-6.6,2.2c-2,1.1-3.8-2-1.8-3.1
	c3.4-1.8,8-3.5,11.8-2.3c1.4,0.4,2.8,0.9,4.2,1.4c0.3,0.1,0.7,0.3,1,0.4c0.3,0.2,0.7,0.3,0.9,0.6C60.4,46.6,60.5,47,60.4,47.4z"/>
<path class="st0" d="M69.1,33.4c0.1,0,0.2,0,0.3,0c0-0.1-0.1-0.3-0.1-0.4C69.2,33.1,69.2,33.2,69.1,33.4L69.1,33.4z"/>
<path class="st1" d="M34.4,70c0.4,0.1,0.9,0.1,1.2,0.1c0.7-0.1,1.5-0.1,1.7-1c0.3-1.1-1.1-1.7-1.9-1.1c-0.3,0.2-0.6,0.5-0.9,0.7
	c-0.2,0.1-0.4,0.2-0.5,0.3c-0.2,0.2-0.2,0.4-0.1,0.6C34,69.8,34.2,70,34.4,70z"/>
<path class="st1" d="M42.7,69.8c0.3,0,0.6,0,0.7,0c0.3,0,0.5,0,0.7-0.2c0.7-0.7-0.9-1.7-1.4-1.8c-0.7-0.2-1.5-0.1-2.1,0.6
	C39.6,69.5,41.5,69.8,42.7,69.8z"/>
<path class="st1" d="M31.2,52.2c-0.5-1.6-1.8-2.3-3.3-2.4c-1.4-0.1-2.8,0.2-3.9,0.7c-1,0.5-2.1,1.1-3.1,1.6
	c-0.9,0.4-1.1,1.6-0.6,2.4c0.5,0.9,1.6,1.1,2.4,0.6c0.6-0.3,1.3-0.7,1.9-1c0.3,1.5,1.4,2.7,3.3,2.7c0.1,0,0.3,0,0.4,0
	C30.6,56.7,31.8,54.4,31.2,52.2z"/>
<path class="st1" d="M59.2,45.8c-0.3-0.1-0.7-0.3-1-0.4c-1.4-0.6-2.8-1-4.2-1.4c-3.8-1.2-8.4,0.5-11.8,2.3c-2,1.1-0.2,4.1,1.8,3.1
	c2.1-1.1,4.3-1.8,6.6-2.2c1.1-0.2,2-0.1,3.1,0.1c1.3,0.2,2.5,0.4,3.8,0.7c0.6,0.1,1.1,0.2,1.7,0.2c0.5,0,1-0.2,1.2-0.7
	c0.1-0.3,0-0.7-0.3-1C59.9,46.1,59.5,45.9,59.2,45.8z"/>
<path class="st1" d="M48.2,74.6c-1.4,0.7-3.1,0.6-4.6,0.6c-0.8,0-1.7-0.2-2.4-0.1c-1.2,0.2-1.6,1.1-2.9,0.3
	c-0.8-0.5-1.9-0.1-2.8-0.1c-1.2,0-2.5,0.1-3.7,0.1c-0.7,0-1.8,0.6-1.6,1.5c0.2,1.3,2.2,2.6,3.3,3.1c1.6,0.7,3.3,1.2,5.1,1.4
	c3.5,0.3,7.1-0.6,10-2.6c0.9-0.6,2.6-1.6,2.3-3C50.6,74.8,49.3,74.1,48.2,74.6z"/>
<path class="st1" d="M54.9,49.7c-0.2-0.1-0.3-0.1-0.5-0.2c-2.1-0.7-4-1.3-6.1-0.5c-1.5,0.5-2.3,1.5-2.1,3.1c0.2,1.7,1.6,3,3.4,3
	c1.7,0,2.7-0.9,3.2-2.1c0.5,0.1,1,0.2,1.6,0.2c1.2,0,1.9-1.1,1.7-2.2C55.9,50.3,55.5,49.9,54.9,49.7z"/>
<path class="st1" d="M81.8,48.6c-0.3-0.7-0.8-1.2-1.1-1.8c-0.3-0.6-0.4-1.3-0.9-1.9c-0.6-0.8-1.2-1.6-2-2.2
	c-0.5-0.4-0.9-0.9-1.4-1.3c-1.7-1.5-1.1-3.6-2.2-5.5c-0.2-0.3-0.4-0.5-0.6-0.8c-0.5-0.5-1.1-0.8-1.7-1.1c-0.2-0.1-0.3-1.4-0.3-1.6
	c-0.1-0.5-0.2-1.1-0.3-1.6c-0.1-1.1-0.2-2.2-0.1-3.3c0.1-1.1,0.4-2.1,0.8-3.2c0.4-0.8,0.8-1.8,0.9-2.6c0.1-0.8,0.1-1.5-0.2-2.3
	c-0.5-1.6-1.6-3-2.8-4.2c-5.1-4.7-9.5-6-16.1-7.5c-1.2-0.3-2.5-0.6-3.6-1.2c-0.8-0.4-1.6-1-2.3-1.6c-6.6-4.6-16-4.7-22.6-0.2
	c-4,2.9-7.3,6-11.6,8.3c-2,1.1-3.7,2.7-4.4,4.9c-0.4,1.1-0.4,2.2-0.4,3.4c-0.1,1.5,0.1,3,0.5,4.5c0.2,0.6,0.4,1.2,0.6,1.8
	c0.2,0.8,0.7,2.3,0.5,3.1c-0.2,0.5-0.8,0.5-1.2,0.7C8.9,31.6,8.4,31.7,8,32c-0.8,0.5-1.6,1.2-2.2,2c-1.9,2.6-1.5,5.2-0.5,8.1
	c0.2,0.4,0.4,0.8,0.6,1.1c-1.6,1.2-2.9,2.7-3.7,4.5C0.4,52,2.6,58.6,6.8,60.8c1.4,0.8,2.9,0.5,4.4,0.7c1.7,0.2,2.5,3.4,3.1,4.7
	c1.2,2.7,1.9,5.6,2.8,8.4c0.7,2,1.3,4.1,2.2,6c1.4,3.3,3.5,6.1,5.6,9c1.5,2.2,4.6,4.8,7.2,5.8c3,1.1,6.2,1.2,9.4,1
	c3-0.3,5.8-1.2,8.6-2.2c1.5-0.6,3-1.3,4.5-2c5.9-2.8,8-7.7,11.3-13.1c1.8-2.9,4.8-5.1,7-7.7c1.2-1.4,3-2.4,3.9-4
	c1-1.8,0.5-4.2,0.5-6.2c0-0.1,0-0.2,0-0.3s0.1-0.1,0.2-0.2c1.7-0.8,3-1.2,3.9-3c0.7-1.4,1-2.9,1.2-4.4
	C82.7,51.7,82.4,50.1,81.8,48.6z M67.8,62.3c0,1.5-0.1,3-0.3,4.6c-0.1,1.3-0.2,2.3-0.9,3.2c-0.8,0.9-1.8,0.6-2.5,1.9
	c-0.6,1-0.4,2.8-0.7,3.9c-0.6,2.1-1.7,4.5-2.8,6.3c-2.5,4.3-7.1,6.7-11.4,8.5c-3.5,1.5-7.4,2.5-11.2,2.3c-2.3-0.1-4.2-0.8-6-1.7
	c-1.3-0.7-2.5-1.5-3.7-2.5c-1.3-1.1-1.8-1.7-2.6-3.2c-1.4-2.8-2.7-5.6-3.8-8.4c-1.2-3.1-2.3-6.3-2.9-9.5c-0.3-1.6-0.1-3.3-0.6-4.9
	c-0.4-1.3-1.3-2.4-1.4-3.7c-0.1-1.1,0.7-1.8,1.1-2.7c0.7-1.4,1.2-2.8,1.5-4.3c0.2-0.7,0.4-1.4,0.6-2.2c0.5-1.7,3.5-1.4,4.8-1.5
	c1.6-0.2,3.3-0.3,4.8,0.1c1.1,0.3,2.1,1,2.6,2c0.8,1.5,0.6,3.6,0.6,5.3c0,1.1-0.1,1.9-0.5,2.9c-0.8,2-1.9,4.1-2.1,6.3
	c-0.1,0.6-0.1,1.2-0.1,1.8c0,0.6-0.1,1.4,0.3,1.9c0.3,0.4,1,0.4,1.4,0c0.3-0.3,0.2-0.8,0.3-1.3c0.1-0.7,0.4-1.3,0.8-1.9
	c0.4-0.5,0.6-1,1.1-1.5c0.5-0.6,0.8-1.4,1.2-2.1c0.9-1.4,0.9-3,0.9-4.5c0-1.4,0.2-2.7,0.2-4.1c-0.1-2.7-0.5-5.3-2.9-7
	c-2.1-1.5-4.8-2-7.4-1.5c-1.3,0.2-2.5,0.6-3.6,1.2c-0.5,0.2-1.6,1.3-2.1,0.7c-0.3-0.3-0.1-1-0.1-1.4c0-0.8,0-1.7,0-2.5
	c-0.1-3.7-0.7-7.5,2.2-10.2c2.7-1.2,5.6-2.2,8.5-2.9c1.8-0.2,3.8-0.2,5.3,0.8c0.7,0.4,1.2,1.1,1.8,1.6c1.8,1.6,4.2,2.6,6.6,2.5
	c1.1,0,2.3-0.2,3.4,0.1c2,0.5,3,2.2,4.4,3.6c1.9,1.9,3.7,2.6,6.4,3c2,0.3,2.1,2.1,2.4,3.9c0.3,2.2,0.8,4.4,1.7,6.5
	c1,2.4,2.7,4.5,4.7,6C68.2,58.1,67.9,61.7,67.8,62.3z M70.5,22.2c-0.1,0.3,0,0.7,0,1c0.1,0.3,0,0.7-0.2,1c-0.2,0.2-0.5,0.2-0.7,0.4
	c-0.2,0.2-0.2,0.5-0.2,0.8c0,0.8,0.1,1.6,0.1,2.4c0,0.7-0.2,1.1-0.4,1.8c-0.2,1.2,0.4,2.3,0,3.4c-0.4,0.9-0.8,0.9-1.6,0.5
	c-0.9-0.4-1.8-1-2.7-1.5c-1.2-0.6-2.4-1-3.6-1.4c-2.8-1-5.6-1.9-8.4-2.7c-2.3-0.6-4.6-1.1-6.9-1.4c-1.6-0.2-3.2-0.3-4.7-0.3
	c-3-0.1-6,0-8.9,0.2c-2.7,0.2-5.2,0.8-7.8,1.3c-2.1,0.4-4,0.9-6,1.6c-1.8,0.6-6.4,4-6.3,0.3c0-0.7,0.1-1.4,0.2-2.1
	c0.2-1.3,1.1-0.8,2-1.4c0.1-0.1,0.2-0.2,0.3-0.4c0.3-0.5,0.5-1,0.5-1.6s-0.1-1.2-0.5-1.6c-0.2-0.2-0.5-0.4-0.7-0.7
	c-0.2-0.3-0.2-0.7,0.1-0.9c0.1,0,0.2-0.1,0.3-0.1c0.4-0.3-0.5-0.9-0.6-1.1c-0.3-0.5-0.4-1.5-0.1-2s1.2-0.5,1.3,0
	c0.4,1-0.2,1.1,0.9,1.7c0.1,0,0.2,0.1,0.3,0.2C16,19.7,16,19.8,16,20c0,0.8,0.1,1.5,0.3,2.3c0.1,0.3,0.2,0.5,0.3,0.7
	c0.2,0.4,0.6,0.6,0.9,0.9c0.1,0.1,0.2,0.2,0.4,0.2c0.1,0,0.2,0,0.3,0c0.9,0,2-0.3,2.7-1c0.3-0.3,0.4-0.7,0.4-1.2
	c0-0.4-0.1-0.8-0.2-1.2c0-0.2-0.1-0.4-0.2-0.5c-0.2-0.4-0.6-0.6-0.9-0.8c-0.5-0.5-0.4-0.9-0.2-1.5c0.2-0.5,0.3-1.1-0.1-1.4
	c-0.3-0.2-0.7-0.3-0.9-0.5c-0.8-0.7,0.3-1.5,0.4-2.2c0.2-0.8-0.5-2,0.2-2.6c0.5-0.4,1.3,0,1.4,0.6c0.3,1.2,0.6,0.6,1.1,1.2
	c0.6,0.8,0.2,2,0.8,2.8c0.6,0.8,1.3,0.8,1.2,2c0,0.7,0,1.5-0.1,2.2c0,0.2,0,0.5,0.1,0.7c0.3,0.6,0.8,0.9,1.3,1.1
	c0.5,0.1,1,0.1,1.4,0c1.4-0.4,1.6-1.3,1.6-2.7c0-0.7-0.3-1.4-0.6-2c-0.2-0.4-0.4-1-0.1-1.3c0.2-0.2,0.6-0.3,0.8-0.5
	c0.3-0.4,0.1-1-0.3-1.3c-0.3-0.4-0.8-0.6-1-1.1c-0.2-0.6,0.3-1.2,0.7-1.6c0.8-0.5,2.3-0.3,2.6,0.6c0.1,0.1,0,0.3,0,0.5
	c-0.2,0.7-0.9,1.8-0.6,2.4c0.3,0.5,1,0.4,1.3,0.9c0.5,0.6,0.2,1.1-0.1,1.8c-2.3,4.3,5.6,5.5,4.8,0.5c-0.2-1.2-1.3-1.9-1.8-2.8
	c-0.2-0.4-0.6-1.2-0.5-1.6c0.1-0.7,1-0.5,1.6-0.5c0.1,0,0.3,0,0.4-0.1c0.7-0.5-0.4-2.4-0.6-2.8c-0.2-0.4-0.2-1,0.1-1.3
	c0.4-0.2,0.9,0,1.3-0.1c0.1,0,0.1,0,0.1-0.1c0.1-0.1,0.1-0.1,0.1-0.2c0.1-0.8-0.1-3.5,1.5-2.9c0.4,0.1,0.6,0.6,0.7,1
	c0.1,0.4-0.1,1.7,0.1,2c0.3,0.3,0.9,0,1.3,0.2c0.8,0.4,0.5,1.3,0.3,2c-0.1,0.4-0.4,0.8-0.4,1.2c-0.1,0.3,0,0.5,0.1,0.7
	c0.1,0.1,0.1,0.1,0.2,0.1c0.1,0,0.1-0.1,0.2-0.1c0.7-0.7,1.2,0.4,1.2,1c0,0.5-0.2,1.5-0.6,1.9c-0.5,0.6-1.5,1-1.7,1.8
	s0.1,2.4,0.7,2.9c0.4,0.3,1,0.4,1.5,0.5c0.6,0.1,1.3,0.2,1.9,0.1c0.6-0.1,1.3-0.3,1.7-0.7c0.5-0.5,0.8-1.2,0.8-1.9
	c0.1-0.9-0.4-1.7-0.5-2.6c0-0.7,0.3-0.9,0.8-1.3c0.5-0.3,0.7-0.6,0.3-1.1C46.4,12.5,46,12,46,11.5c0.2-1.4,2.1-2.3,3.1-1.1
	c0.3,0.4,0.5,1,0.4,1.5c0,0.1,0,0.2-0.1,0.3c-0.3,0.4-0.9,0.6-1,1.1s0.4,0.9,0.6,1.3c0.2,0.5,0.3,0.9,0.2,1.4
	c-0.2,0.6-0.9,1-1.1,1.7C48,18.2,48,18.8,48,19.3c0,0.2,0,0.5,0.1,0.7c0.2,0.4,0.9,0.8,1.3,1c0.4,0.2,1,0.3,1.5,0.3
	c1,0,1.6,0,2.1-0.9c0.3-0.5,0.5-1.2,0.4-1.9c0-0.5-0.5-1.2-0.3-1.7c0.1-0.1,0.3-0.1,0.4-0.1c0.1,0,0.3,0.1,0.4,0
	c0.1-0.1,0.1-0.3,0.1-0.5c0-0.3,0-0.6-0.1-1c0-0.5,0-1,0.3-1.3l0,0c0,0,0.1,0,0.1,0.1c0.8,0.9,0.8-1.3,0.8-1.6c0-0.2,0-0.4,0.1-0.7
	s0.3-0.5,0.6-0.7s0.8-0.2,1.1,0.1s0.4,0.7,0.4,1.1c0,0.6-0.1,1.1-0.4,1.6c-0.1,0.1-0.1,0.2-0.1,0.4s0,0.3,0.2,0.3c0.1,0,0.2,0,0.2,0
	c0.2,0,0.4,0.3,0.4,0.5c0,0.5-0.8,1-1,1.3s-0.3,0.8,0,1.1c0.1,0.1,0.2,0.1,0.3,0.2c0.2,0.2,0.2,0.5,0.1,0.7s-0.3,0.4-0.4,0.6
	c-0.5,0.5-1,1.1-0.9,1.8c0.1,0.9,1.3,1.9,2.2,1.9c1,0.1,2.2-0.2,2.8-1.1c0.6-0.9,0.4-2.3,0.6-3.3c0.1-0.4,0.3-0.8,0.6-0.9
	c0.2-0.1,0.5,0,0.7-0.1c0.4-0.2,0.5-0.6,0.5-1s0-0.8,0.1-1.2c0.1-0.4,0.5-0.7,0.9-0.6c0.2,0.1,0.3,0.2,0.4,0.4
	c0.1,0.2,0.3,0.4,0.3,0.7c0.1,0.7-0.5,1.2-0.6,1.9c-0.1,0.8,0.5,1.6,0.2,2.3c-0.6,1.3-1.9,3.3-0.7,4.6c0.5,0.6,1.6,0.8,2.3,0.5
	c0.8-0.4,0.9-1.7,1.7-1.9c0.2-0.1,0.5,0,0.7-0.2c0.1-0.2,0-0.4,0-0.7c0-0.3,0.2-0.5,0.5-0.7c0.3-0.1,0.6-0.2,0.8-0.4
	c0.3-0.2,0.4-0.5,0.7-0.6c0.3-0.2,0.7-0.2,0.9,0c0.2,0.3,0,0.7-0.2,0.9C71,21.7,70.7,21.9,70.5,22.2z"/>
</svg>
