<?xml version="1.0" encoding="utf-8"?>
<!-- Generator: Adobe Illustrator 23.0.4, SVG Export Plug-In . SVG Version: 6.00 Build 0)  -->
<svg version="1.1" id="Layer_1" xmlns="http://www.w3.org/2000/svg" xmlns:xlink="http://www.w3.org/1999/xlink" x="0px" y="0px"
	 viewBox="0 0 64.5 64.9" style="enable-background:new 0 0 64.5 64.9;" xml:space="preserve">
<style type="text/css">
	.st0{fill:#FFFFFF;}
</style>
<title>16_christmas_present</title>
<path class="st0" d="M60,14H41.4c0.3-0.2,0.6-0.5,0.8-0.8c3.6-3.6,4.5-8.2,2.1-10.6c-0.9-0.9-2.2-1.4-3.5-1.3
	c-2.7,0.2-5.3,1.4-7.1,3.5c-0.7,0.7-1.2,1.4-1.8,2.1c-0.5-0.8-1.1-1.5-1.8-2.1c-1.9-2-4.4-3.3-7.1-3.5c-1.3,0-2.5,0.4-3.5,1.3
	c-2.4,2.4-1.5,7,2.1,10.6c0.3,0.3,0.5,0.5,0.8,0.8H4c-1.1,0-2,0.9-2,2v14c0,1.1,0.9,2,2,2h1v29c0,1.1,0.9,2,2,2h50c1.1,0,2-0.9,2-2
	V32h1c1.1,0,2-0.9,2-2V16C62,14.9,61.1,14,60,14z M58,28H41V18h17V28z M37,18v10H27V18H37z M36.6,7.6c1.1-1.3,2.6-2.1,4.3-2.3
	c0.2,0,0.5,0,0.6,0.2c0.4,0.4,0.2,2.7-2.1,4.9s-4.5,2.6-5,2.1S34.3,9.9,36.6,7.6z M22.5,5.5c0.2-0.1,0.4-0.2,0.6-0.2
	c1.7,0.2,3.2,1,4.3,2.3c2.3,2.3,2.5,4.5,2.1,5s-2.7,0.1-5-2.1S22,5.9,22.5,5.5z M6,18h17v10H6V18z M9,59V32h14v27H9z M27,59V32h10
	v27H27z M55,59H41V32h14V59z"/>
</svg>
